<svg width="16" height="16" viewBox="0 0 16 16" fill="none" xmlns="http://www.w3.org/2000/svg">
<g id="ep:arrow-up-bold">
<path id="Vector" d="M1.63605 5.29295C1.82358 5.10548 2.07788 5.00017 2.34305 5.00017C2.60821 5.00017 2.86252 5.10548 3.05005 5.29295L8.00005 10.243L12.95 5.29295C13.1387 5.11079 13.3913 5.01 13.6535 5.01228C13.9156 5.01456 14.1665 5.11973 14.3519 5.30513C14.5373 5.49054 14.6424 5.74135 14.6447 6.00355C14.647 6.26575 14.5462 6.51835 14.364 6.70695L8.70705 12.364C8.51952 12.5514 8.26521 12.6567 8.00005 12.6567C7.73488 12.6567 7.48058 12.5514 7.29305 12.364L1.63605 6.70695C1.44858 6.51942 1.34326 6.26512 1.34326 5.99995C1.34326 5.73479 1.44858 5.48048 1.63605 5.29295Z" fill="black"/>
</g>
</svg>
