<svg width="20" height="20" viewBox="0 0 20 20" fill="none" xmlns="http://www.w3.org/2000/svg">
<g id="mdi:account">
<path id="Vector" d="M9.99998 3.33337C10.884 3.33337 11.7319 3.68456 12.357 4.30968C12.9821 4.93481 13.3333 5.78265 13.3333 6.66671C13.3333 7.55076 12.9821 8.39861 12.357 9.02373C11.7319 9.64885 10.884 10 9.99998 10C9.11592 10 8.26808 9.64885 7.64296 9.02373C7.01784 8.39861 6.66665 7.55076 6.66665 6.66671C6.66665 5.78265 7.01784 4.93481 7.64296 4.30968C8.26808 3.68456 9.11592 3.33337 9.99998 3.33337ZM9.99998 11.6667C13.6833 11.6667 16.6666 13.1584 16.6666 15V16.6667H3.33331V15C3.33331 13.1584 6.31665 11.6667 9.99998 11.6667Z" fill="#DBE3E1"/>
</g>
</svg>
